<?xml version="1.0" encoding="utf-8"?>
<!-- Generator: Adobe Illustrator 26.0.2, SVG Export Plug-In . SVG Version: 6.00 Build 0)  -->
<svg version="1.1" id="Layer_1" xmlns="http://www.w3.org/2000/svg" xmlns:xlink="http://www.w3.org/1999/xlink" x="0px" y="0px"
	 viewBox="0 0 64 64" style="enable-background:new 0 0 64 64;" xml:space="preserve">
<style type="text/css">
	.st0{fill:#435363;}
	.st1{fill:#FFFFFF;}
</style>
<circle class="st0" cx="32" cy="32" r="32"/>
<path class="st1" d="M32,11.2c-4.2,0-8.2,1.3-11.6,3.7c-3.3,2.3-5.9,5.6-7.3,9.4l-0.4,1h4.5l0.2-0.5c0.8-1.7,1.9-3.3,3.3-4.7
	c3-3,7.1-4.7,11.4-4.7s8.4,1.7,11.4,4.7s4.7,7.1,4.7,11.4c0,4.3-1.7,8.4-4.7,11.4s-7.1,4.7-11.4,4.7c-4.3,0-8.4-1.7-11.4-4.7
	c-1.4-1.4-2.5-2.9-3.3-4.7l-0.2-0.5h-4.5l0.4,1c1.5,3.8,4,7,7.3,9.4c3.4,2.4,7.5,3.7,11.7,3.7c11.2,0,20.3-9.1,20.3-20.3
	S43.2,11.2,32,11.2z M11.7,33.6h18.5L26,38l2.9,2.9l9.4-9.4l-9.4-9.4l-3,2.9l4.4,4.4H11.7V33.6z"/>
</svg>
