<?xml version="1.0" encoding="utf-8"?>
<!-- Generator: Adobe Illustrator 16.0.4, SVG Export Plug-In . SVG Version: 6.00 Build 0)  -->
<!DOCTYPE svg PUBLIC "-//W3C//DTD SVG 1.1//EN" "http://www.w3.org/Graphics/SVG/1.1/DTD/svg11.dtd">
<svg version="1.1" id="Layer_1" xmlns="http://www.w3.org/2000/svg" xmlns:xlink="http://www.w3.org/1999/xlink" x="0px" y="0px"
	 width="512px" height="512px" viewBox="0 0 512 512" enable-background="new 0 0 512 512" xml:space="preserve">
<circle fill="#435363" cx="256" cy="256" r="256"/>
<path fill="#FFFFFF" d="M256,89.5c-33.516,0-65.781,10.156-93.125,29.297c-26.718,18.75-47.031,44.688-58.671,75.078L101.312,202
	h35.703l1.484-3.906c6.406-13.906,15.156-26.484,26.172-37.5c24.375-24.375,56.797-37.812,91.328-37.812
	s66.953,13.438,91.328,37.812s37.812,56.797,37.812,91.328c0,34.453-13.438,66.953-37.812,91.328S290.531,381.062,256,381.062
	c-34.453,0-66.875-13.438-91.328-37.812c-10.938-10.938-19.766-23.516-26.172-37.422l-1.484-3.906h-35.703l2.812,8.125
	c11.641,30.391,31.953,56.328,58.672,75.078C190.219,404.422,222.406,414.5,256,414.5c89.609,0,162.5-72.891,162.5-162.5
	S345.609,89.5,256,89.5z M93.5,268.719h148.204l-34.062,34.922L231,327l75-75l-75-75l-24.219,23.359l34.922,34.922H93.5V268.719z"/>
</svg>
